<svg id="Capa_1" data-name="Capa 1" xmlns="http://www.w3.org/2000/svg" viewBox="0 0 273.23 214.65"><defs><style>.cls-1{fill:#ac1b2b;}.cls-2{fill:#e9c8d0;}.cls-3{fill:#edeba5;}.cls-4{fill:#dad025;}.cls-5{fill:#e8cee2;}.cls-6{fill:#a44991;}.cls-7{fill:#acd1da;}.cls-8{fill:#89bec5;}.cls-9{fill:#e3b3a6;}.cls-10{fill:#c64c32;}.cls-11{fill:#002172;}.cls-12{fill:#8798c8;}.cls-13{fill:#77ae74;}.cls-14{fill:#3f7e3b;}.cls-15{font-size:52px;fill:#7c1a1d;font-family:NeonLights-, Neon Lights;}.cls-16{fill:#49a29b;}.cls-17{fill:#e4de7a;}.cls-18{fill:#c33e53;}.cls-19{fill:#3d529a;}</style></defs><text x="-228.76" y="-202.23"/><polygon class="cls-1" points="186.15 76.64 160.84 112.44 209.89 112.44 186.15 76.64"/><polygon class="cls-2" points="184.58 148.24 209.89 112.44 160.84 112.44 184.58 148.24"/><polygon class="cls-3" points="79.94 143.07 57.55 171.63 100.94 171.63 79.94 143.07"/><polygon class="cls-4" points="78.55 200.18 100.94 171.63 57.55 171.63 78.55 200.18"/><polygon class="cls-5" points="16.52 157.18 5.32 171.46 27.01 171.46 16.52 157.18"/><polygon class="cls-6" points="15.82 185.74 27.01 171.46 5.32 171.46 15.82 185.74"/><polygon class="cls-7" points="113.44 117.09 124.94 103.06 103.25 102.59 113.44 117.09"/><polygon class="cls-8" points="114.75 88.56 103.25 102.59 124.94 103.06 114.75 88.56"/><polygon class="cls-9" points="207.55 159.47 196.35 173.75 218.05 173.75 207.55 159.47"/><polygon class="cls-10" points="206.85 188.03 218.05 173.75 196.35 173.75 206.85 188.03"/><polygon class="cls-11" points="39.85 74.55 14.54 110.35 63.58 110.35 39.85 74.55"/><polygon class="cls-12" points="38.27 146.15 63.58 110.35 14.54 110.35 38.27 146.15"/><polygon class="cls-13" points="149.62 143.07 127.23 171.63 170.62 171.63 149.62 143.07"/><polygon class="cls-14" points="148.23 200.18 170.62 171.63 127.23 171.63 148.23 200.18"/><text class="cls-15" transform="translate(17.23 158.33)">M<tspan class="cls-16" x="46.59" y="0">A</tspan><tspan class="cls-17" x="80.7" y="0">C</tspan><tspan class="cls-18" x="116.06" y="0">H</tspan><tspan class="cls-19" x="143.57" y="0">m</tspan></text><text x="-228.76" y="-202.23"/></svg>